<svg width="671" height="671" xmlns="http://www.w3.org/2000/svg" xmlns:xlink="http://www.w3.org/1999/xlink" xml:space="preserve" overflow="hidden"><g transform="translate(-212 -1194)"><rect x="226" y="1208" width="643" height="643" stroke="#042433" stroke-width="27.5" stroke-miterlimit="8" fill="#F4F4F6"/><path d="M508 1479.65 530.746 1504.97 552.227 1530.3 574.973 1556.89 586.346 1573.35 597.718 1591.07 607.827 1605 629.309 1558.15 654.582 1496.11 686.173 1427.74 719.027 1366.96 749.355 1317.58 775.891 1283.4 786 1272" stroke="#00B050" stroke-width="53.8542" stroke-linecap="round" stroke-miterlimit="8" fill="none" fill-rule="evenodd"/><path d="M271.198 1475.22 270.5 1498.25 277.476 1522.69 287.94 1541.54 299.799 1554.1 320.029 1565.97 349.328 1572.25 366.071 1572.25 377.93 1570.86 611.624 1804.03 633.947 1814.5 652.782 1811.71 669.524 1800.54 676.5 1780.99 674.407 1761.44 662.548 1746.08 432.342 1514.31 434.435 1483.59 426.064 1454.97 413.507 1434.73 394.672 1420.07 374.442 1410.29 352.119 1407.5 337.469 1413.09 377.93 1457.76 364.675 1501.75 321.425 1514.31 271.198 1475.22Z" stroke="#042433" stroke-width="6.875" stroke-miterlimit="8" fill-rule="evenodd"/></g></svg>