<svg width="676" height="670" xmlns="http://www.w3.org/2000/svg" xmlns:xlink="http://www.w3.org/1999/xlink" xml:space="preserve" overflow="hidden"><g transform="translate(-972 -451)"><rect x="986" y="465" width="648" height="642" stroke="#A6A6A6" stroke-width="27.5" stroke-miterlimit="8" fill="#FFFFFF"/><path d="M1024.2 738.217 1023.5 761.255 1030.49 785.689 1040.98 804.538 1052.87 817.104 1073.15 828.972 1102.52 835.255 1119.31 835.255 1131.19 833.859 1365.46 1067.03 1387.84 1077.5 1406.72 1074.71 1423.51 1063.54 1430.5 1043.99 1428.4 1024.44 1416.51 1009.08 1185.74 777.311 1187.84 746.594 1179.45 717.972 1166.86 697.727 1147.98 683.066 1127.7 673.293 1105.32 670.5 1090.63 676.085 1131.19 720.764 1117.91 764.746 1074.55 777.311 1024.2 738.217Z" stroke="#A6A6A6" stroke-width="6.875" stroke-miterlimit="8" fill="#A6A6A6" fill-rule="evenodd"/><path d="M1271 628.808 1281.77 587.16 1314.08 547.053 1363.31 527 1414.08 537.798 1451 565.564 1471 610.298 1467.92 658.117 1441.77 699.766 1406.38 724.447 1377.15 758.383 1375.62 817" stroke="#FFC000" stroke-width="53.8542" stroke-linecap="round" stroke-miterlimit="8" fill="#FFFFFF" fill-rule="evenodd"/><path d="M1345 888.5C1345 872.76 1357.76 860 1373.5 860 1389.24 860 1402 872.76 1402 888.5 1402 904.24 1389.24 917 1373.5 917 1357.76 917 1345 904.24 1345 888.5Z" fill="#FFC000" fill-rule="evenodd"/></g></svg>