<svg width="671" height="671" xmlns="http://www.w3.org/2000/svg" xmlns:xlink="http://www.w3.org/1999/xlink" xml:space="preserve" overflow="hidden"><g transform="translate(-212 -452)"><rect x="226" y="466" width="643" height="643" stroke="#A6A6A6" stroke-width="27.5" stroke-miterlimit="8" fill="#FFFFFF"/><path d="M508 737.65 530.746 762.974 552.227 788.297 574.973 814.886 586.346 831.346 597.718 849.072 607.827 863 629.309 816.152 654.582 754.11 686.173 685.738 719.027 624.962 749.355 575.582 775.891 541.396 786 530" stroke="#00B050" stroke-width="53.8542" stroke-linecap="round" stroke-miterlimit="8" fill="#FFFFFF" fill-rule="evenodd"/><path d="M271.198 733.217 270.5 756.255 277.476 780.689 287.94 799.538 299.799 812.104 320.029 823.972 349.328 830.255 366.071 830.255 377.93 828.858 611.624 1062.03 633.947 1072.5 652.782 1069.71 669.524 1058.54 676.5 1038.99 674.407 1019.44 662.548 1004.08 432.342 772.311 434.435 741.594 426.064 712.972 413.507 692.727 394.672 678.066 374.442 668.292 352.119 665.5 337.469 671.085 377.93 715.764 364.675 759.745 321.425 772.311 271.198 733.217Z" stroke="#A6A6A6" stroke-width="6.875" stroke-miterlimit="8" fill="#A6A6A6" fill-rule="evenodd"/></g></svg>