<svg width="676" height="670" xmlns="http://www.w3.org/2000/svg" xmlns:xlink="http://www.w3.org/1999/xlink" xml:space="preserve" overflow="hidden"><g transform="translate(-1737 -1193)"><rect x="1751" y="1207" width="648" height="642" stroke="#042433" stroke-width="27.5" stroke-miterlimit="8" fill="#F4F4F6"/><path d="M1798.2 1480.38 1797.5 1503.48 1804.49 1527.97 1814.98 1546.87 1826.87 1559.46 1847.15 1571.36 1876.52 1577.66 1893.31 1577.66 1905.19 1576.26 2139.46 1810 2161.84 1820.5 2180.72 1817.7 2197.51 1806.5 2204.5 1786.91 2202.4 1767.31 2190.51 1751.92 1959.74 1519.57 1961.84 1488.78 1953.45 1460.09 1940.86 1439.79 1921.98 1425.1 1901.7 1415.3 1879.32 1412.5 1864.63 1418.1 1905.19 1462.89 1891.91 1506.98 1848.55 1519.57 1798.2 1480.38Z" stroke="#042433" stroke-width="6.875" stroke-miterlimit="8" fill-rule="evenodd"/><path d="M2042 1279 2299.51 1536.51" stroke="#FF0000" stroke-width="53.8542" stroke-linecap="round" stroke-miterlimit="8" fill="none" fill-rule="evenodd"/><path d="M0 0 257.515 257.515" stroke="#FF0000" stroke-width="53.8542" stroke-linecap="round" stroke-miterlimit="8" fill="none" fill-rule="evenodd" transform="matrix(-1 0 0 1 2299.51 1279)"/></g></svg>