<svg width="676" height="670" xmlns="http://www.w3.org/2000/svg" xmlns:xlink="http://www.w3.org/1999/xlink" xml:space="preserve" overflow="hidden"><g transform="translate(-972 -1193)"><rect x="986" y="1207" width="648" height="642" stroke="#042433" stroke-width="27.5" stroke-miterlimit="8" fill="#F4F4F6"/><path d="M1024.2 1480.38 1023.5 1503.48 1030.49 1527.97 1040.98 1546.87 1052.87 1559.46 1073.15 1571.36 1102.52 1577.66 1119.31 1577.66 1131.19 1576.26 1365.46 1810 1387.84 1820.5 1406.72 1817.7 1423.51 1806.5 1430.5 1786.91 1428.4 1767.31 1416.51 1751.92 1185.74 1519.57 1187.84 1488.78 1179.45 1460.09 1166.86 1439.79 1147.98 1425.1 1127.7 1415.3 1105.32 1412.5 1090.63 1418.1 1131.19 1462.89 1117.91 1506.98 1074.55 1519.57 1024.2 1480.38Z" stroke="#042433" stroke-width="6.875" stroke-miterlimit="8" fill-rule="evenodd"/><path d="M1271 1370.81 1281.77 1329.16 1314.08 1289.05 1363.31 1269 1414.08 1279.8 1451 1307.56 1471 1352.3 1467.92 1400.12 1441.77 1441.77 1406.38 1466.45 1377.15 1500.38 1375.62 1559" stroke="#FFC000" stroke-width="53.8542" stroke-linecap="round" stroke-miterlimit="8" fill="none" fill-rule="evenodd"/><path d="M1345 1630.5C1345 1614.76 1357.76 1602 1373.5 1602 1389.24 1602 1402 1614.76 1402 1630.5 1402 1646.24 1389.24 1659 1373.5 1659 1357.76 1659 1345 1646.24 1345 1630.5Z" fill="#FFC000" fill-rule="evenodd"/></g></svg>